# xmcd CD database file
#
# Track frame offsets:
#	150
#	13122
#	25471
#	42345
#	60369
#
# Disc length: 971 seconds
#
# Revision: 0
# Processed by: cddbd v1.4PL0 Copyright (c) Steve Scherf et al.
# Submitted via: CDex 1.50beta9
#
DISCID=3803c905
DTITLE=Carrie Folks - Lay Around and Love On You
DYEAR=1900
DGENRE=Country
TTITLE0=Love You Wild
TTITLE1=Lay Around and Love On You
TTITLE2=Jump in the River With Me
TTITLE3=What Was I Thinking Of
TTITLE4=When Love Finds A Boy And Girl
EXTD=
EXTT0=
EXTT1=
EXTT2=
EXTT3=
EXTT4=
PLAYORDER=
